<svg id="Layer_1" data-name="Layer 1" xmlns="http://www.w3.org/2000/svg" viewBox="0 0 121.85714 121.85714"><circle cx="60.92857" cy="60.92857" r="57.42857" fill="none" stroke="#000" stroke-miterlimit="10" stroke-width="7"/><path d="M75.66071,124.08928c-21.32563.00775-27.64722,10.31973-26.06189,26.062.15088-17.80984-8.46332-26.5726-26.062-26.062,17.2752.0441,25.8222-8.78586,26.062-26.06192C49.72864,112.80571,54.68823,124.14625,75.66071,124.08928Z" transform="translate(-2.03572 -56.67857)"/><path d="M93.49994,98.02736c-12.49316.00455-16.19653,6.04559-15.26782,15.26785.08838-10.43353-4.95807-15.567-15.26789-15.26785,10.1203.02582,15.12745-5.147,15.26789-15.26785C78.30823,91.4171,81.21368,98.06071,93.49994,98.02736Z" transform="translate(-2.03572 -56.67857)"/><path d="M91.38446,139.35716c-6.96985.00253-9.03595,3.3728-8.51782,8.51785.04932-5.8208-2.76605-8.68475-8.51782-8.51785,5.64605.01441,8.43945-2.87149,8.51782-8.51782C82.90912,135.66933,84.53,139.37578,91.38446,139.35716Z" transform="translate(-2.03572 -56.67857)"/></svg>