<svg id="Layer_1" data-name="Layer 1" xmlns="http://www.w3.org/2000/svg" viewBox="0 0 75.29843 107.14057"><path d="M63.84409.02013c-.13947.23832-.27893.29823-.41839,0Z" transform="translate(-28.49141 -0.02011)" fill="#707070"/><path d="M68.86474.02013c-.13946.3-.27892.237-.41838,0Z" transform="translate(-28.49141 -0.02011)" fill="#717171"/><path d="M103.21838,31.17477A37.70825,37.70825,0,0,0,73.619.76511a37.94414,37.94414,0,0,1-4.12664-.745h-.62763a.271.271,0,0,1-.41839,0H63.84411a.271.271,0,0,1-.41839,0h-.8368c-.11029.33582-.40606.19611-.61865.22138A36.83509,36.83509,0,0,0,44.18,7.134,37.123,37.123,0,0,0,28.86584,32.51535a41.66659,41.66659,0,0,0,1.8606,18.64874c2.63086,8.47028,6.84613,16.17285,11.513,23.65149C48.87933,85.45609,56.53143,95.4,63.583,105.75766a3.047,3.047,0,0,0,5.12867.00366c1.16674-1.60394,2.24646-3.27093,3.38494-4.89581,5.83191-8.32355,11.90473-16.48077,17.3418-25.07709,4.69293-7.4198,8.96008-15.05707,11.74475-23.43146C103.47784,45.45609,104.52758,38.4357,103.21838,31.17477ZM93.45007,55.11905a133.02941,133.02941,0,0,1-13.52887,23.69c-4.36115,6.33661-8.83991,12.59229-13.26233,18.88678-.29486.41962-.45123.84052-.96454.104C59.00909,88.20773,51.954,78.86746,45.92779,68.82712a88.24026,88.24026,0,0,1-9.55658-20.66c-2.50329-8.60492-2.20056-16.97216,1.97827-25.0426a31.36215,31.36215,0,0,1,58.35913,7.489,33.92037,33.92037,0,0,1,.82264,7.25592C97.47442,43.78159,95.79791,49.533,93.45007,55.11905Z" transform="translate(-28.49141 -0.02011)"/><path d="M66.25738,18.84811A18.82715,18.82715,0,1,0,84.97125,37.75949,18.85935,18.85935,0,0,0,66.25738,18.84811Zm-.13782,31.37806A12.5513,12.5513,0,1,1,78.69543,37.67276,12.59913,12.59913,0,0,1,66.11956,50.22617Z" transform="translate(-28.49141 -0.02011)"/></svg>